<svg width="671" height="672" viewBox="0 0 671 672" fill="none" xmlns="http://www.w3.org/2000/svg">
<path d="M593.834 356.956C605.565 356.956 614.782 347.459 614.782 336.008C614.782 324.277 605.565 315.06 593.834 315.06H558.921V253.612H593.834C605.565 253.612 614.782 244.395 614.782 232.664C614.782 221.213 605.565 211.716 593.834 211.716H552.497C539.09 167.307 504.177 132.393 459.767 118.987V77.6494C459.767 66.1978 450.271 56.7014 438.819 56.7014C427.368 56.7014 417.871 66.1978 417.871 77.6494V112.563H356.424V77.6494C356.424 66.1978 346.927 56.7014 335.476 56.7014C324.024 56.7014 314.528 66.1978 314.528 77.6494V112.563H253.36V77.6494C253.36 66.1978 243.863 56.7014 232.412 56.7014C220.681 56.7014 211.464 66.1978 211.464 77.6494V118.987C166.775 132.393 131.861 167.307 118.455 211.716H77.1174C65.6658 211.716 56.1694 221.213 56.1694 232.664C56.1694 244.395 65.6658 253.612 77.1174 253.612H112.031V315.06H77.1174C65.6658 315.06 56.1694 324.277 56.1694 336.008C56.1694 347.459 65.6658 356.956 77.1174 356.956H112.031V418.403H77.1174C65.6658 418.403 56.1694 427.62 56.1694 439.351C56.1694 450.803 65.6658 460.299 77.1174 460.299H118.455C131.582 504.709 166.775 539.622 211.464 553.029V594.366C211.464 605.818 220.681 615.314 232.412 615.314C243.863 615.314 253.36 605.818 253.36 594.366V559.453H314.807V594.366C314.807 605.818 324.024 615.314 335.755 615.314C347.207 615.314 356.703 605.818 356.703 594.366V559.453H417.871V594.366C417.871 605.818 427.368 615.314 438.819 615.314C450.271 615.314 459.767 605.818 459.767 594.366V553.029C504.177 539.622 539.09 504.709 552.497 460.299H593.834C605.565 460.299 614.782 450.803 614.782 439.351C614.782 427.62 605.565 418.403 593.834 418.403H558.921V356.956H593.834ZM482.391 399.131C482.391 445.217 444.685 482.923 398.599 482.923H272.353C226.267 482.923 188.561 445.217 188.561 399.131V272.885C188.561 226.799 226.267 189.093 272.353 189.093H398.599C444.685 189.093 482.391 226.799 482.391 272.885V399.131V399.131Z" fill="#BDFF2F"/>
<path d="M280.176 454.72H391.061C425.974 454.72 454.464 426.51 454.464 391.317V280.433C454.464 245.52 426.254 217.03 391.061 217.03H280.176C245.263 217.03 216.774 245.24 216.774 280.433V391.317C216.774 426.51 244.984 454.72 280.176 454.72Z" fill="#BDFF2F"/>
</svg>
