<svg width="671" height="672" viewBox="0 0 671 672" fill="none" xmlns="http://www.w3.org/2000/svg">
<path d="M452.407 56.6941H218.349C116.681 56.6941 56.0718 117.304 56.0718 218.971V452.75C56.0718 554.697 116.681 615.307 218.349 615.307H452.128C553.796 615.307 614.405 554.697 614.405 453.03V218.971C614.684 117.304 554.075 56.6941 452.407 56.6941ZM228.683 469.23C228.124 469.23 227.287 469.23 226.728 469.23C199.635 466.716 174.218 454.147 155.226 434.037C110.537 387.113 110.537 310.863 155.226 263.939L216.394 199.699C238.179 176.796 267.507 163.948 298.789 163.948C330.071 163.948 359.398 176.516 381.184 199.699C425.873 246.622 425.873 322.873 381.184 369.796L350.74 401.917C342.64 410.296 329.513 410.575 321.133 402.755C312.754 394.655 312.475 381.527 320.296 373.148L350.74 341.028C380.346 310.025 380.346 259.47 350.74 228.747C323.089 199.699 274.489 199.699 246.559 228.747L185.391 292.987C155.784 323.99 155.784 374.545 185.391 405.268C197.401 418.116 213.601 425.937 230.638 427.613C242.09 428.73 250.469 439.064 249.352 450.516C248.514 461.13 239.297 469.23 228.683 469.23ZM515.531 408.341L454.363 472.581C432.577 495.484 403.25 508.332 371.967 508.332C340.685 508.332 311.358 495.764 289.572 472.581C244.883 425.658 244.883 349.407 289.572 302.484L320.016 270.363C328.116 261.984 341.244 261.705 349.623 269.525C358.002 277.625 358.281 290.753 350.461 299.132L320.016 331.252C290.41 362.255 290.41 412.81 320.016 443.533C347.668 472.581 396.267 472.86 424.197 443.533L485.366 379.293C514.972 348.29 514.972 297.735 485.366 267.012C473.355 254.164 457.156 246.343 440.118 244.667C428.666 243.55 420.287 233.216 421.404 221.764C422.522 210.313 432.577 201.654 444.308 203.051C471.4 205.844 496.817 218.133 515.81 238.243C560.22 284.887 560.22 361.417 515.531 408.341Z" fill="#BDFF2F"/>
</svg>
