<svg width="671" height="672" viewBox="0 0 671 672" fill="none" xmlns="http://www.w3.org/2000/svg">
<path d="M601.987 484.312V479.843C601.987 425.937 574.615 398.844 520.988 398.844C467.362 398.844 439.99 426.216 439.99 479.843V484.312C410.662 491.574 398.932 511.684 398.932 551.904V572.573C398.932 624.245 418.204 643.238 469.596 643.238H572.381C624.053 643.238 643.045 623.965 643.045 572.573V551.904C643.045 511.964 631.315 491.574 601.987 484.312ZM520.709 437.389C556.74 437.389 563.164 451.075 563.164 479.843V481.24H478.255V479.843C478.255 451.075 484.679 437.389 520.709 437.389Z" fill="#0E2558"/>
<path d="M212.583 56.7603C215.06 56.7013 217.106 58.7101 217.106 61.1879V214.223C217.106 216.691 215.105 218.692 212.637 218.692H60.9733C58.5052 218.692 56.5002 216.662 56.5446 214.194C58.283 117.565 116.243 59.0549 212.583 56.7603Z" fill="#0E2558"/>
<path d="M585.235 218.692H458.989C456.521 218.692 454.52 216.691 454.52 214.223V61.1909C454.52 58.7119 456.561 56.7026 459.039 56.7633C546.109 58.8959 601.908 106.956 613.166 187.409C615.4 203.889 601.994 218.692 585.235 218.692Z" fill="#0E2558"/>
<path d="M212.637 456.122C215.105 456.122 217.106 458.123 217.106 460.591V585.162C217.106 601.92 202.302 615.327 185.544 613.092C106.219 601.29 59.2629 546.329 56.6035 460.669C56.5263 458.18 58.54 456.122 61.0302 456.122H212.637Z" fill="#0E2558"/>
<path d="M217.106 265.076C217.106 262.608 215.105 260.607 212.637 260.607H60.9733C58.5052 260.607 56.5044 262.608 56.5044 265.076V409.757C56.5044 412.225 58.5052 414.226 60.9733 414.226H212.637C215.105 414.226 217.106 412.225 217.106 409.757V265.076Z" fill="#0E2558"/>
<path d="M412.624 265.076C412.624 262.608 410.624 260.607 408.155 260.607H263.475C261.007 260.607 259.006 262.608 259.006 265.076V409.757C259.006 412.225 261.007 414.226 263.475 414.226H384.694C400.056 414.226 412.624 401.657 412.624 386.295V265.076Z" fill="#0E2558"/>
<path d="M412.624 61.163C412.624 58.6949 410.624 56.6941 408.155 56.6941H263.475C261.007 56.6941 259.006 58.6949 259.006 61.163V214.223C259.006 216.691 261.007 218.692 263.475 218.692H408.155C410.624 218.692 412.624 216.691 412.624 214.223V61.163Z" fill="#0E2558"/>
</svg>
