<svg width="672" height="672" viewBox="0 0 672 672" fill="none" xmlns="http://www.w3.org/2000/svg">
<path d="M586.118 116.198C578.019 104.467 567.684 94.1329 555.953 86.033C529.419 66.7608 494.785 56.7058 453.169 56.7058H219.11C213.524 56.7058 207.938 56.9851 202.631 57.5437C111.018 63.4092 56.833 122.901 56.833 218.983V453.041C56.833 494.658 66.888 529.292 86.1602 555.826C94.2601 567.557 104.594 577.891 116.325 585.991C139.228 602.75 168.276 612.525 202.631 614.76C207.938 615.039 213.524 615.318 219.11 615.318H453.169C554.836 615.318 615.446 554.709 615.446 453.041V218.983C615.446 177.366 605.391 142.732 586.118 116.198ZM524.671 280.151C524.671 291.602 515.175 301.099 503.723 301.099C492.272 301.099 482.775 291.602 482.775 280.151V218.983L365.746 336.012L482.775 453.041V391.873C482.775 380.422 492.272 370.925 503.723 370.925C515.175 370.925 524.671 380.422 524.671 391.873V503.596C524.671 506.389 524.112 508.903 522.995 511.696C520.761 516.723 516.85 520.913 511.544 523.147C509.03 524.265 506.237 524.823 503.444 524.823H391.721C380.27 524.823 370.773 515.327 370.773 503.875C370.773 492.424 380.27 482.927 391.721 482.927H452.889L336.139 365.619L219.11 482.648H280.278C291.73 482.648 301.226 492.144 301.226 503.596C301.226 515.047 291.73 524.544 280.278 524.544H168.556C165.762 524.544 162.969 523.985 160.456 522.868C155.428 520.634 151.239 516.723 149.004 511.416C148.166 508.903 147.608 506.389 147.608 503.596V391.873C147.608 380.422 157.104 370.925 168.556 370.925C180.007 370.925 189.503 380.422 189.503 391.873V453.041L306.533 336.012L189.503 218.983V280.151C189.503 291.602 180.007 301.099 168.556 301.099C157.104 301.099 147.608 291.602 147.608 280.151V168.428C147.608 165.635 148.166 163.122 149.283 160.328C151.518 155.301 155.428 151.111 160.735 148.877C163.249 148.039 165.762 147.48 168.556 147.48H280.278C291.73 147.48 301.226 156.977 301.226 168.428C301.226 179.88 291.73 189.376 280.278 189.376H219.11L336.139 306.406L453.169 189.376H392.001C380.549 189.376 371.053 179.88 371.053 168.428C371.053 156.977 380.549 147.48 392.001 147.48H503.723C506.516 147.48 509.03 148.039 511.823 149.156C516.851 151.391 521.04 155.301 523.275 160.608C524.112 163.122 524.671 165.635 524.671 168.428V280.151Z" fill="#FF30FD"/>
</svg>
