<svg width="671" height="672" viewBox="0 0 671 672" fill="none" xmlns="http://www.w3.org/2000/svg">
<path d="M536.813 413.647C512.792 435.712 480.951 448.001 448.273 447.722H178.463C64.785 439.622 64.5057 274.552 178.463 266.452H179.58C101.653 49.7107 430.956 -36.595 468.662 190.76C573.96 204.167 616.694 344.1 536.813 413.647Z" fill="#0E2558"/>
<path d="M524.24 587.376C524.24 598.827 514.744 608.324 503.292 608.324H391.57C390.173 608.324 389.056 608.324 387.659 607.765C379.56 628.434 359.17 643.237 335.709 643.237C312.247 643.237 291.857 628.434 283.758 607.765C282.361 608.324 281.244 608.324 279.847 608.324H168.125C156.673 608.324 147.177 598.827 147.177 587.376C147.177 575.924 156.673 566.428 168.125 566.428H279.847C281.244 566.428 282.361 566.428 283.758 566.986C289.344 552.463 300.795 541.011 315.319 535.425C314.761 534.028 314.761 532.911 314.761 531.515V447.723H356.656V531.515C356.656 532.911 356.656 534.028 356.098 535.425C370.622 541.011 382.073 552.463 387.659 566.986C389.056 566.428 390.173 566.428 391.57 566.428H503.292C514.744 566.428 524.24 575.924 524.24 587.376Z" fill="#0E2558"/>
</svg>
