<svg width="739" height="672" viewBox="0 0 739 672" fill="none" xmlns="http://www.w3.org/2000/svg">
<path d="M615.758 370.889L590.062 345.752L373.599 561.935L399.575 587.91C421.361 609.696 443.984 620.589 466.329 620.589C488.673 620.589 511.297 609.696 533.083 587.91L615.758 505.236C660.167 460.547 660.167 415.578 615.758 370.889Z" fill="#FF30FD"/>
<path d="M326.674 81.8754C282.823 38.0243 236.738 38.0243 192.887 81.8754L109.933 164.55C66.361 208.401 66.361 254.487 109.933 298.338L135.629 324.034L352.091 107.572L326.674 81.8754Z" fill="#FF30FD"/>
<path d="M637.266 109.995C600.677 201.328 517.165 320.592 437.562 398.518C426.111 326.457 368.574 270.037 295.954 259.982C374.16 180.101 494.262 95.4708 585.874 58.6023C602.074 52.4576 618.274 57.2058 628.329 67.2608C638.942 77.8745 643.97 93.7949 637.266 109.995Z" fill="#FF30FD"/>
<path d="M412.982 421.498C407.395 426.246 401.809 430.994 396.223 435.463L346.227 475.404C346.227 474.566 345.948 473.449 345.948 472.332C342.038 442.446 328.073 414.795 305.449 392.171C282.546 369.268 254.056 355.302 222.774 351.392C221.936 351.392 220.819 351.113 219.981 351.113L260.48 300C264.391 294.972 268.58 290.224 273.049 285.197L292.042 287.71C352.093 296.089 400.413 343.292 409.909 403.064L412.982 421.498Z" fill="#FF30FD"/>
<path d="M319.407 492.16C319.407 522.883 307.677 552.21 285.332 574.276C268.294 591.593 245.391 603.323 217.461 606.675L149.031 614.216C111.604 618.406 79.4833 586.286 83.6729 548.579L91.2142 479.87C97.9176 418.702 149.031 379.599 203.216 378.482C208.523 378.203 214.388 378.482 219.974 379.04C243.715 382.113 266.619 393.006 285.891 411.999C304.604 430.712 315.218 452.777 318.29 475.96C318.849 481.546 319.407 486.853 319.407 492.16Z" fill="#FF30FD"/>
</svg>
