<svg width="671" height="672" viewBox="0 0 671 672" fill="none" xmlns="http://www.w3.org/2000/svg">
<path d="M380.171 406.09L365.367 391.286L379.333 377.321C387.433 369.221 387.433 355.814 379.333 347.715C371.233 339.615 357.826 339.615 349.726 347.715L335.761 361.68L320.958 346.877C312.858 338.777 299.451 338.777 291.351 346.877C283.251 354.977 283.251 368.383 291.351 376.483L306.155 391.286L290.793 406.648C282.693 414.748 282.693 428.155 290.793 436.255C294.982 440.444 300.289 442.399 305.596 442.399C310.903 442.399 316.21 440.444 320.399 436.255L335.761 420.893L350.564 435.696C354.754 439.886 360.061 441.841 365.367 441.841C370.674 441.841 375.981 439.886 380.171 435.696C388.271 427.596 388.271 414.469 380.171 406.09Z" fill="#FFDF36"/>
<path d="M589.369 195.774C565.628 169.519 526.246 156.392 468.43 156.392H461.726V155.274C461.726 108.351 461.726 50.2551 356.707 50.2551H314.253C209.233 50.2551 209.233 108.351 209.233 155.274V156.392H202.53C144.714 156.392 105.052 169.519 81.5905 195.774C53.9392 226.777 54.7771 267.835 57.5701 296.045L57.8494 298L60.2697 326.236C60.3287 326.924 60.7024 327.546 61.2819 327.922C70.541 333.919 80.7963 340.634 90.5283 346.041C94.4386 348.554 98.6282 350.789 102.818 353.023C134.379 370.34 168.175 384.026 202.809 393.523C203.647 465.863 262.86 524.517 335.48 524.517C408.658 524.517 468.15 465.025 468.15 391.847V390.73C503.343 380.116 537.139 365.313 568.701 346.878C570.377 346.041 571.494 345.203 572.89 344.365C585.443 337.542 598.529 328.321 610.065 320.086C610.582 319.717 610.916 319.146 610.986 318.515L611.993 309.451L613.39 296.324C613.669 294.648 613.669 293.252 613.948 291.296C616.183 263.366 615.624 224.822 589.369 195.774ZM249.174 155.274C249.174 107.792 249.174 89.9166 314.253 89.9166H356.707C421.786 89.9166 421.786 107.792 421.786 155.274V156.392H249.174V155.274ZM335.48 482.621C289.394 482.621 251.129 447.987 245.543 403.298C244.985 399.667 244.705 395.757 244.705 391.847C244.705 341.851 285.484 301.072 335.48 301.072C385.476 301.072 426.254 341.851 426.254 391.847C426.254 395.198 425.975 398.271 425.696 401.343V401.622C420.668 447.149 382.124 482.621 335.48 482.621Z" fill="#FFDF36"/>
<path d="M601.052 376.703C602.666 375.743 604.8 377.08 604.629 378.951L593.324 502.496C587.459 558.357 564.555 615.335 441.661 615.335H228.829C105.934 615.335 83.0313 558.357 77.4452 502.775L66.3972 384.48C66.2282 382.671 68.172 381.423 69.7463 382.33C73.6817 384.597 79.7086 388.045 82.752 389.656C104.538 401.666 127.162 412.28 150.344 420.659C159.003 423.731 165.147 430.993 167.661 439.931C188.609 512.551 256.201 566.457 335.524 566.457C416.244 566.457 484.395 511.433 504.225 436.021C506.46 427.083 512.605 419.821 521.263 416.469C544.725 407.252 567.069 396.359 588.017 384.349C589.722 383.402 596.562 379.373 601.052 376.703Z" fill="#FFDF36"/>
</svg>
