<svg width="672" height="672" viewBox="0 0 672 672" fill="none" xmlns="http://www.w3.org/2000/svg">
<path d="M594.405 256.396C529.885 155.008 435.48 96.6326 336.047 96.6326C286.33 96.6326 238.01 111.156 193.88 138.249C149.749 165.621 110.088 205.562 77.6882 256.396C49.7576 300.247 49.7576 371.47 77.6882 415.321C142.208 516.989 236.613 575.084 336.047 575.084C385.763 575.084 434.083 560.56 478.213 533.468C522.344 506.096 562.005 466.155 594.405 415.321C622.335 371.749 622.335 300.247 594.405 256.396ZM336.047 448.838C273.482 448.838 223.207 398.283 223.207 335.998C223.207 273.713 273.482 223.158 336.047 223.158C398.611 223.158 448.886 273.713 448.886 335.998C448.886 398.283 398.611 448.838 336.047 448.838Z" fill="#3F7BF9"/>
<path d="M336.052 256.117C292.2 256.117 256.449 291.869 256.449 335.999C256.449 379.85 292.2 415.601 336.052 415.601C379.903 415.601 415.933 379.85 415.933 335.999C415.933 292.148 379.903 256.117 336.052 256.117Z" fill="#3F7BF9"/>
</svg>
