<svg width="672" height="672" viewBox="0 0 672 672" fill="none" xmlns="http://www.w3.org/2000/svg">
<path d="M466.024 160.561H206.269C123.873 160.561 56.8398 227.595 56.8398 309.99V465.843C56.8398 548.238 123.873 615.272 206.269 615.272H466.024C548.419 615.272 615.452 548.238 615.452 465.843V309.99C615.452 227.595 548.419 160.561 466.024 160.561ZM405.973 336.524C405.973 321.162 418.541 308.593 433.903 308.593C449.265 308.593 461.834 321.162 461.834 336.524C461.834 351.886 449.265 364.734 433.903 364.734C418.541 364.734 405.973 352.444 405.973 337.083V336.524ZM283.916 449.643C279.726 453.833 274.419 455.788 269.113 455.788C263.806 455.788 258.499 453.833 254.309 449.643L225.541 420.874L197.89 448.526C193.7 452.715 188.393 454.671 183.086 454.671C177.779 454.671 172.473 452.715 168.283 448.526C160.183 440.426 160.183 427.019 168.283 418.919L195.934 391.268L169.121 364.455C161.021 356.355 161.021 342.948 169.121 334.848C177.221 326.748 190.628 326.748 198.727 334.848L225.541 361.662L253.192 334.01C261.292 325.91 274.699 325.91 282.799 334.01C290.899 342.11 290.899 355.517 282.799 363.617L255.147 391.268L283.916 420.037C292.016 428.136 292.016 441.543 283.916 449.643ZM379.159 419.757C363.797 419.757 350.949 407.189 350.949 391.827C350.949 376.465 363.239 363.896 378.601 363.896H379.159C394.521 363.896 407.09 376.465 407.09 391.827C407.09 407.189 394.8 419.757 379.159 419.757ZM433.903 474.781C418.541 474.781 405.973 462.491 405.973 447.129V446.571C405.973 431.209 418.541 418.64 433.903 418.64C449.265 418.64 461.834 431.209 461.834 446.571C461.834 461.933 449.544 474.781 433.903 474.781ZM489.206 419.757C473.844 419.757 460.996 407.189 460.996 391.827C460.996 376.465 473.286 363.896 488.647 363.896H489.206C504.568 363.896 517.137 376.465 517.137 391.827C517.137 407.189 504.847 419.757 489.206 419.757Z" fill="#3F7BF9"/>
<path d="M381.949 76.5241L381.67 102.779C381.391 127.358 361.001 147.747 336.143 147.747C331.954 147.747 329.44 150.54 329.44 154.171C329.44 157.802 332.233 160.595 335.864 160.595H290.896C290.616 158.64 290.337 156.406 290.337 154.171C290.337 129.034 310.726 108.644 335.585 108.644C339.774 108.644 342.567 105.851 342.567 102.22L342.847 75.9655C343.126 65.3519 351.784 56.6934 362.398 56.6934H362.677C373.57 56.6934 381.949 65.6312 381.949 76.5241Z" fill="#3F7BF9"/>
</svg>
